<svg width="503" height="353" viewBox="0 0 503 353" fill="none" xmlns="http://www.w3.org/2000/svg">
<path d="M455.355 347.137H358.65C358.01 346.388 354.06 341.89 347.15 336.812C350.909 332.116 353.158 326.156 353.158 319.671C353.158 314.512 351.734 309.685 349.259 305.561H363.206V302.652H347.246C342.218 296.299 334.438 292.222 325.709 292.222C322.186 292.222 318.82 292.886 315.725 294.095L317.817 291.391V283.755C317.817 282.386 316.994 281.138 315.718 280.638C315.231 280.446 314.756 280.21 314.294 279.931V277.824H311.701C309.132 275.165 307.027 271.176 305.313 266.715V265.183H304.748C300.218 252.478 298.689 236.847 298.689 236.847H286.19C288.28 242.53 290.037 250.235 291.482 258.361V258.825H291.564C292.681 265.174 293.607 271.758 294.356 277.824H291.482V284.105H295.091C296.249 294.555 296.795 302.249 296.795 302.249L296.309 303.104H291.482V308.909H281.456C281.226 308.781 281.011 308.645 280.816 308.499L279.462 308.504L280.545 282.683L273.746 284.42L273.68 308.736C273.631 308.785 273.588 308.843 273.551 308.909H266.13C265.902 308.781 265.687 308.645 265.492 308.499L264.602 308.502L266.783 285.073L258.781 284.42L258.715 308.531C258.519 308.566 258.345 308.705 258.225 308.909H255.037C230.323 307.584 229.47 290.443 233.448 279.082C237.424 267.718 242.339 265.003 242.339 265.003C242.339 265.003 181.718 272.256 173.468 274.497H170.179V276.241C167.028 278.833 165.114 283.404 164.044 286.882C163.323 289.23 165.063 291.612 167.52 291.651L170.179 291.691V294.123H185.518C179.02 296.683 173.734 301.651 170.759 307.928H170.179V309.236C168.856 312.454 168.126 315.977 168.126 319.671C168.126 334.832 180.416 347.122 195.575 347.122C197.111 347.122 198.619 346.994 200.086 346.751C200.141 346.922 200.193 347.056 200.225 347.137H180.612C172.258 340.644 166.92 338.943 163.619 338.943C159.983 338.943 158.816 341.007 158.816 341.007C158.816 341.007 156.797 334.569 135.206 332.045C132.911 331.777 131.021 331.657 129.475 331.657C116.493 331.657 127.883 340.122 127.883 340.122C127.481 340.118 127.095 340.116 126.719 340.116C124.053 340.116 122.041 340.221 120.567 340.405C118.7 337.628 115.965 334.705 112.134 333.042C110.881 332.497 109.681 332.265 108.544 332.265C101.683 332.265 97.1233 340.76 97.1233 340.76C95.1955 334.6 91.5414 333.124 88.4827 333.124C85.6699 333.124 83.3607 334.372 83.3607 334.372C78.7494 324.461 74.2241 321.557 70.5027 321.557C65.2311 321.557 61.573 327.387 61.573 327.387C61.2264 327.35 60.8956 327.333 60.5774 327.333C53.7105 327.333 53.2154 335.536 53.2154 335.536L58.2001 347.137H23.103V323.954H37.3121V321.213V305.758H51.5209V314.731H58.0022V290.302H80.4376V303.015H86.6695V206.014L160.457 205.308V248.386L163.198 248.422H166.689V211.241H171.674V200.496H178.904V169.127H189.373V200.496H196.602V211.241H201.589V245.06H207.571V162.737H210.812V151.702H220.212C220.333 155.655 221.529 166.592 231.034 166.592C231.036 166.592 231.036 166.592 231.038 166.592C231.038 166.592 231.107 166.595 231.233 166.595C231.64 166.595 232.649 166.549 233.805 166.141C234.168 166.051 235.276 165.71 236.44 164.837L233.684 169.432L241.394 176.215C241.394 176.215 241.83 175.429 242.47 174.289V215.038L251.944 214.789V181.327H278.865L280.074 244.229L284.1 243.978V222.747H292.825V206.045H298.06V194.826H318.5V206.045H323.735V222.747H332.46V261.94L339.939 261.692V222.82H364.939V259.39L381.071 259.196L380.82 213.522H405V251.414H409.987V311.242H413.976V321.213H417.963V308.25H436.162V321.213H441.146V314.731H455.355V347.137ZM131.122 293.352V304.661H139.852V293.352H131.122ZM106.174 293.352V304.661H114.905V293.352H106.174ZM390.662 286.871V293.154H395.512V286.871H390.662ZM382.553 286.871V293.154H387.403V286.871H382.553ZM341.445 290.085V292.997H363.206V290.085H341.445ZM142.1 274.035V285.344H150.83V274.035H142.1ZM119.59 274.035V285.344H128.321V274.035H119.59ZM318.425 277.824V284.105H323.275V277.824H318.425ZM398.773 275.672V281.954H403.623V275.672H398.773ZM341.445 277.521V280.432H363.206V277.521H341.445ZM398.773 264.474V270.755H403.623V264.474H398.773ZM390.662 264.474V270.755H395.512V264.474H390.662ZM170.179 266.139V269.051H196.956V266.139H170.179ZM341.445 264.957V267.868H363.206V264.957H341.445ZM254.253 264.292V267.202H276.013V264.292H254.253ZM131.122 249.419V260.73H139.852V249.419H131.122ZM106.174 249.419V260.73H114.905V249.419H106.174ZM92.7576 249.419V260.73H101.489V249.419H92.7576ZM382.553 253.274V259.557H387.403V253.274H382.553ZM318.425 252.544V258.825H323.275V252.544H318.425ZM309.444 252.544V258.825H314.294V252.544H309.444ZM254.253 251.726V254.638H276.013V251.726H254.253ZM170.179 249.425V252.336H196.956V249.425H170.179ZM212.896 245.799V252.082H217.746V245.799H212.896ZM341.445 246.109V249.021H363.206V246.109H341.445ZM398.773 242.075V248.358H403.623V242.075H398.773ZM382.553 242.075V248.358H387.403V242.075H382.553ZM300.463 239.903V246.186H305.313V239.903H300.463ZM106.174 231.088V242.399H114.905V231.088H106.174ZM398.773 230.877V237.16H403.623V230.877H398.773ZM341.445 233.545V236.456H363.206V233.545H341.445ZM254.253 232.881V235.79H276.013V232.881H254.253ZM170.179 232.71V235.62H196.956V232.71H170.179ZM318.425 227.264V233.545H323.275V227.264H318.425ZM291.482 227.264V233.545H296.331V227.264H291.482ZM341.445 227.264V230.173H363.206V227.264H341.445ZM233.076 223.622V229.906H237.925V223.622H233.076ZM170.179 224.352V227.264H196.956V224.352H170.179ZM398.773 219.678V225.959H403.623V219.678H398.773ZM382.553 219.678V225.959H387.403V219.678H382.553ZM142.1 213.043V224.352H150.83V213.043H142.1ZM119.59 213.043V224.352H128.321V213.043H119.59ZM106.174 213.043V224.352H114.905V213.043H106.174ZM92.7576 213.043V224.352H101.489V213.043H92.7576ZM170.179 215.994V218.905H196.956V215.994H170.179ZM222.985 212.534V218.818H227.837V212.534H222.985ZM212.896 212.534V218.818H217.746V212.534H212.896ZM254.253 214.033V216.945H276.013V214.033H254.253ZM315.014 210.197V216.481H319.864V210.197H315.014ZM304.594 210.197V216.481H309.444V210.197H304.594ZM254.253 207.75V210.661H276.013V207.75H254.253ZM233.076 201.446V207.729H237.925V201.446H233.076ZM212.896 201.446V207.729H217.746V201.446H212.896ZM254.253 195.186V198.097H276.013V195.186H254.253ZM233.076 190.358V196.641H237.925V190.358H233.076ZM222.985 190.358V196.641H227.837V190.358H222.985ZM254.253 188.904V191.814H276.013V188.904H254.253ZM233.076 179.27V185.553H237.925V179.27H233.076ZM212.896 179.27V185.553H217.746V179.27H212.896ZM222.985 168.184V174.465H227.837V168.184H222.985ZM212.896 168.184V174.465H217.746V168.184H212.896ZM298.173 347.137H261.808L284.981 346.968C284.981 346.968 272.286 339.658 266.272 339.658C264.959 339.658 263.965 340.006 263.49 340.854C263.49 340.854 254.812 339.059 249.006 339.059C243.451 339.059 240.53 340.702 250.368 347.137H216.152C214.019 345.275 212.2 343.784 210.658 342.611C218.107 337.701 223.024 329.26 223.024 319.671C223.024 317.733 222.824 315.843 222.442 314.017C226.343 317.08 230.072 317.349 231.259 317.349C231.511 317.349 231.648 317.336 231.648 317.336H297.742L298.449 316.423C298.324 317.487 298.259 318.573 298.259 319.671C298.259 326.203 300.541 332.204 304.351 336.915C301.297 338.668 304.749 343.112 304.749 343.112C302.923 342.751 301.505 342.597 300.41 342.597C294.932 342.597 297.634 346.437 298.173 347.137ZM127.155 347.137H123.884C123.8 346.877 123.641 346.409 123.398 345.795C124.915 346.385 126.336 346.867 127.155 347.137ZM213.682 299.04C209.172 295.079 203.351 292.574 196.956 292.256V292.102L212.331 292.338C212.686 294.808 213.143 297.035 213.682 299.04Z" fill="#4E92E7"/>
<path d="M324.659 10.7975C316.631 10.7975 309.796 15.8924 307.204 23.025C305.37 22.0034 303.26 21.4178 301.011 21.4178C293.975 21.4178 288.271 27.1227 288.271 34.158C288.271 34.5752 288.293 34.9869 288.332 35.3948H371.246C370.202 30.8499 366.136 27.4595 361.273 27.4595C360.38 27.4595 359.516 27.5736 358.691 27.7888C356.29 22.6564 351.083 19.1013 345.045 19.1013C343.484 19.1013 341.978 19.339 340.562 19.7805C337.312 14.3974 331.405 10.7975 324.659 10.7975Z" fill="white"/>
<path d="M65.4365 148.122C65.9887 145.718 68.1395 143.925 70.7108 143.925C71.1828 143.925 71.6407 143.985 72.0774 144.099C73.3462 141.386 76.1002 139.506 79.294 139.506C80.1197 139.506 80.9158 139.631 81.6648 139.863C83.384 137.017 86.5078 135.114 90.0759 135.114C94.3214 135.114 97.9375 137.809 99.3077 141.581C100.277 141.04 101.394 140.73 102.583 140.73C106.304 140.73 109.321 143.748 109.321 147.467C109.321 147.688 109.31 147.907 109.289 148.122H65.4365Z" fill="white"/>
<path d="M449.14 51.3645C449.808 48.4512 452.415 46.2789 455.53 46.2789C456.102 46.2789 456.656 46.3519 457.186 46.4903C458.722 43.2028 462.06 40.9238 465.929 40.9238C466.929 40.9238 467.894 41.0754 468.802 41.3579C470.884 37.9095 474.669 35.6024 478.991 35.6024C484.135 35.6024 488.517 38.8675 490.177 43.4386C491.352 42.7818 492.705 42.4076 494.145 42.4076C498.655 42.4076 502.309 46.0637 502.309 50.5712C502.309 50.8387 502.296 51.1025 502.27 51.3645H449.14Z" fill="white"/>
<path d="M365.537 114.433C366.205 111.522 368.812 109.348 371.927 109.348C372.5 109.348 373.054 109.423 373.583 109.559C375.121 106.272 378.457 103.993 382.327 103.993C383.326 103.993 384.291 104.146 385.199 104.429C387.281 100.978 391.066 98.6732 395.389 98.6732C400.534 98.6732 404.914 101.936 406.574 106.507C407.749 105.853 409.102 105.478 410.543 105.478C415.052 105.478 418.706 109.133 418.706 113.642C418.706 113.908 418.693 114.173 418.667 114.433H365.537Z" fill="white"/>
<path d="M12.3228 184.142C12.9919 181.231 15.5979 179.059 18.7133 179.059C19.2851 179.059 19.8399 179.132 20.3686 179.27C21.9061 175.981 25.2428 173.704 29.1122 173.704C30.1125 173.704 31.0774 173.855 31.9847 174.138C34.0678 170.689 37.8521 168.382 42.1754 168.382C47.3192 168.382 51.7002 171.647 53.3602 176.217C54.5352 175.562 55.888 175.187 57.3288 175.187C61.8375 175.187 65.4923 178.842 65.4923 183.351C65.4923 183.619 65.4787 183.882 65.4534 184.142H12.3228Z" fill="white"/>
<path d="M110.175 157.055L108.361 155.59C108.407 155.532 109.511 154.17 111.637 151.827L113.364 153.393C111.289 155.681 110.186 157.042 110.175 157.055Z" fill="white"/>
<path d="M253.702 89.965C250.411 89.7686 247.069 89.6862 243.784 89.718L243.763 87.3848C247.099 87.3549 250.497 87.4372 253.841 87.6355L253.702 89.965ZM224.014 91.2561L223.675 88.949C226.998 88.4626 230.368 88.0846 233.693 87.8264L233.874 90.1503C230.602 90.4066 227.284 90.779 224.014 91.2561ZM273.379 92.4779C270.13 91.8399 266.835 91.3047 263.582 90.8894L263.877 88.5748C267.183 88.9977 270.531 89.5403 273.828 90.1896L273.379 92.4779ZM204.607 95.4043L203.976 93.159C207.215 92.2478 210.506 91.432 213.756 90.7359L214.245 93.0168C211.043 93.7016 207.801 94.5062 204.607 95.4043ZM292.565 97.5467C289.412 96.4989 286.21 95.5427 283.05 94.7064L283.647 92.4517C286.854 93.3012 290.1 94.2704 293.3 95.3332L292.565 97.5467ZM185.847 101.929L184.955 99.7751C188.068 98.4822 191.234 97.2754 194.366 96.1845L195.133 98.3868C192.044 99.4627 188.92 100.655 185.847 101.929ZM311.016 104.898C307.994 103.493 304.925 102.166 301.894 100.958L302.758 98.791C305.829 100.017 308.939 101.36 312 102.784L311.016 104.898ZM167.93 110.54L166.811 108.494C169.767 106.876 172.78 105.327 175.764 103.89L176.774 105.993C173.827 107.411 170.85 108.94 167.93 110.54ZM328.581 114.203C325.713 112.497 322.796 110.858 319.914 109.329L321.007 107.267C323.922 108.814 326.871 110.474 329.773 112.199L328.581 114.203ZM150.97 120.945L149.657 119.017C152.435 117.124 155.277 115.283 158.105 113.546L159.325 115.535C156.529 117.251 153.719 119.072 150.97 120.945ZM345.21 125.132C342.495 123.179 339.739 121.278 337.014 119.485L338.296 117.537C341.048 119.347 343.833 121.266 346.572 123.24L345.21 125.132ZM135.047 132.895L133.565 131.095C136.151 128.966 138.812 126.874 141.474 124.874L142.876 126.739C140.239 128.717 137.607 130.788 135.047 132.895ZM360.902 137.39C358.345 135.234 355.742 133.122 353.171 131.112L354.606 129.273C357.201 131.301 359.825 133.432 362.405 135.605L360.902 137.39ZM120.251 146.227L118.612 144.567C120.958 142.249 123.424 139.925 125.939 137.661L127.499 139.394C125.011 141.635 122.573 143.933 120.251 146.227ZM375.708 150.725C373.293 148.407 370.84 146.122 368.413 143.935L369.975 142.202C372.419 144.406 374.891 146.708 377.323 149.043L375.708 150.725Z" fill="white"/>
<path d="M386.228 161.274C385.101 160.095 383.952 158.909 382.813 157.749L384.476 156.116C385.623 157.283 386.78 158.477 387.914 159.663L386.228 161.274Z" fill="white"/>
<path d="M377.484 2.69934C377.48 2.69747 377.477 2.69559 377.471 2.69185C377.477 2.69372 377.48 2.69747 377.484 2.69934ZM377.385 2.63572C377.379 2.63385 377.374 2.62824 377.368 2.6245C377.374 2.62824 377.379 2.63197 377.385 2.63572ZM377.108 2.45986C377.099 2.45238 377.091 2.44863 377.082 2.44302C377.089 2.44676 377.101 2.45425 377.108 2.45986ZM377.013 2.3981C376.998 2.38875 376.987 2.38126 376.972 2.3719C376.985 2.38126 377 2.39062 377.013 2.3981ZM376.906 2.33075C376.891 2.3214 376.874 2.31018 376.859 2.30082C376.874 2.31018 376.891 2.3214 376.906 2.33075ZM376.798 2.2615C376.777 2.2484 376.751 2.23158 376.73 2.21849C376.753 2.23345 376.775 2.2484 376.798 2.2615ZM376.653 2.17171C376.629 2.15487 376.609 2.14364 376.584 2.1268C376.607 2.14176 376.631 2.15674 376.653 2.17171ZM376.536 2.095C376.515 2.0819 376.491 2.06878 376.47 2.05568C376.491 2.06878 376.515 2.0819 376.536 2.095ZM376.421 2.02389C376.401 2.01079 376.373 1.99393 376.352 1.98084C376.377 1.9958 376.399 2.01079 376.421 2.02389ZM376.309 1.95277C376.274 1.93032 376.236 1.90787 376.201 1.88542C376.236 1.90787 376.274 1.93032 376.309 1.95277ZM376.186 1.87606C376.156 1.85735 376.118 1.83305 376.087 1.81434C376.12 1.83492 376.154 1.85548 376.186 1.87606ZM376.047 1.79C376.023 1.77316 375.999 1.7582 375.972 1.74136C375.999 1.7582 376.023 1.77316 376.047 1.79ZM375.931 1.71702C375.905 1.70018 375.877 1.68148 375.851 1.66651C375.879 1.68335 375.905 1.70018 375.931 1.71702ZM375.817 1.64594C375.746 1.60103 375.662 1.54862 375.589 1.50184C375.666 1.55049 375.742 1.59729 375.817 1.64594ZM375.555 1.48313C375.525 1.46255 375.505 1.45135 375.475 1.43077C375.501 1.44761 375.529 1.46629 375.555 1.48313ZM375.435 1.40829C375.405 1.38771 375.385 1.3765 375.353 1.35592C375.381 1.37463 375.407 1.38958 375.435 1.40829ZM375.319 1.33531C375.248 1.2904 375.164 1.23989 375.091 1.19312C375.168 1.24176 375.243 1.28853 375.319 1.33531ZM375.057 1.1744C375.027 1.15569 375.005 1.14075 374.973 1.12204C375.001 1.13888 375.029 1.15756 375.057 1.1744ZM374.936 1.09956C374.911 1.08272 374.88 1.06402 374.853 1.04906C374.882 1.0659 374.908 1.08272 374.936 1.09956ZM374.82 1.02848C374.784 1.00603 374.741 0.979818 374.706 0.957365C374.743 0.979818 374.782 1.00416 374.82 1.02848ZM374.64 0.91808C374.625 0.906853 374.61 0.899369 374.595 0.890014C374.61 0.899369 374.625 0.908724 374.64 0.91808ZM374.573 0.876894C374.558 0.865667 374.548 0.860083 374.532 0.850728C374.547 0.860083 374.56 0.867539 374.573 0.876894ZM374.504 0.833881C374.492 0.826397 374.479 0.81889 374.468 0.811406C374.479 0.81889 374.492 0.826397 374.504 0.833881ZM374.425 0.78524C374.419 0.783369 374.412 0.777726 374.406 0.773984C374.412 0.777726 374.419 0.781498 374.425 0.78524Z" fill="white"/>
<path d="M371.246 35.3948H347.008C345.221 35.3068 343.432 35.2694 341.64 35.2694C339.531 35.2694 337.418 35.3199 335.308 35.3948H288.332C288.293 34.9869 288.271 34.5752 288.271 34.158C288.271 27.1227 293.975 21.4178 301.011 21.4178C303.26 21.4178 305.37 22.0034 307.204 23.025C309.197 17.539 313.702 13.2579 319.329 11.5758C320.393 11.602 321.46 11.6189 322.526 11.6189C324.785 11.6189 327.043 11.5496 329.285 11.3794C334.054 12.6031 338.081 15.6716 340.562 19.7805C341.978 19.339 343.484 19.1013 345.045 19.1013C351.083 19.1013 356.29 22.6564 358.691 27.7888C359.516 27.5736 360.38 27.4595 361.273 27.4595C366.136 27.4595 370.202 30.8499 371.246 35.3948Z" fill="white"/>
<path d="M253.528 70.1146C252.452 69.5627 251.431 68.9415 250.48 68.2454C251.594 68.7151 252.619 69.3475 253.528 70.1146Z" fill="white"/>
<path d="M393.351 105.312C389.055 105.312 384.781 104.866 380.538 104.159C381.118 104.051 381.715 103.993 382.326 103.993C383.326 103.993 384.291 104.146 385.198 104.429C387.281 100.978 391.066 98.6732 395.388 98.6732C399.669 98.6732 403.421 100.933 405.517 104.324C402.057 104.777 398.595 105.185 395.11 105.286C394.524 105.302 393.936 105.312 393.351 105.312Z" fill="white"/>
<path d="M169.855 67.6428C170.476 67.0029 171.083 66.3499 171.676 65.68C171.083 66.3518 170.476 67.0029 169.855 67.6428ZM171.681 65.6744C171.694 65.6595 171.708 65.6445 171.721 65.6314C171.709 65.6445 171.694 65.6613 171.681 65.6744ZM171.73 65.6202C171.739 65.609 171.749 65.5977 171.76 65.5865C171.749 65.5977 171.739 65.6108 171.73 65.6202ZM171.773 65.5715C171.781 65.564 171.788 65.5547 171.796 65.5472C171.788 65.5547 171.781 65.564 171.773 65.5715ZM171.829 65.506C171.833 65.5042 171.835 65.5004 171.839 65.4967C171.837 65.5004 171.833 65.5042 171.829 65.506ZM171.865 65.4686C171.865 65.4667 171.867 65.4649 171.867 65.4649L171.865 65.4686ZM172.55 64.6715C172.553 64.6659 172.557 64.6622 172.561 64.6584C172.559 64.6603 172.553 64.6678 172.55 64.6715ZM172.596 64.6154C172.602 64.6079 172.609 64.6004 172.615 64.5929C172.608 64.6023 172.604 64.6079 172.596 64.6154ZM172.63 64.5761C172.643 64.5611 172.654 64.548 172.666 64.5331C172.654 64.548 172.643 64.5611 172.63 64.5761ZM172.718 64.4695C172.724 64.4639 172.729 64.4582 172.735 64.4508C172.727 64.4601 172.725 64.462 172.718 64.4695ZM172.778 64.4002C172.782 64.3965 172.785 64.3909 172.789 64.3871C172.785 64.3909 172.78 64.3965 172.778 64.4002ZM172.843 64.3235C172.845 64.3198 172.847 64.316 172.851 64.3141C172.849 64.316 172.845 64.3198 172.843 64.3235ZM172.903 64.2505C172.905 64.2487 172.905 64.2468 172.907 64.2468L172.903 64.2505ZM173.019 64.1121C173.023 64.1083 173.027 64.1027 173.03 64.099C173.027 64.1046 173.025 64.1065 173.019 64.1121ZM173.324 63.751C173.326 63.7472 173.33 63.7453 173.332 63.7416C173.33 63.7453 173.326 63.7472 173.324 63.751Z" fill="white"/>
<path d="M66.4597 145.989C67.4506 144.732 68.9861 143.925 70.7106 143.925C71.1827 143.925 71.6406 143.985 72.0773 144.099C73.3461 141.386 76.1001 139.506 79.2939 139.506C80.1196 139.506 80.9157 139.631 81.6647 139.863C83.3839 137.017 86.5077 135.114 90.0758 135.114C92.2042 135.114 94.1746 135.792 95.7828 136.942C90.4095 138.961 85.2091 141.54 79.7218 143.254C75.4043 144.603 70.9511 145.403 66.4597 145.989Z" fill="white"/>
<path d="M135.047 132.895L133.565 131.095C136.151 128.966 138.812 126.874 141.475 124.874L142.876 126.739C140.24 128.717 137.607 130.788 135.047 132.895ZM150.97 120.945L149.657 119.017C152.435 117.124 155.278 115.283 158.105 113.546L159.325 115.535C156.529 117.251 153.719 119.072 150.97 120.945ZM167.93 110.539L166.811 108.494C169.767 106.876 172.78 105.327 175.764 103.89L176.774 105.993C173.827 107.411 170.851 108.94 167.93 110.539ZM185.847 101.929L184.955 99.7751C188.068 98.4822 191.234 97.2754 194.366 96.1845L195.134 98.3868C192.044 99.4627 188.92 100.655 185.847 101.929Z" fill="white"/>
<path d="M254.252 191.814H276.013V188.904H254.252V191.814Z" fill="#4A8FE6"/>
<path d="M92.7576 224.352H101.489V213.043H92.7576V224.352Z" fill="#407EDE"/>
<path d="M92.7576 260.73H101.489V249.419H92.7576V260.73Z" fill="#407EDE"/>
<path d="M106.174 224.352H114.905V213.043H106.174V224.352Z" fill="#407EDE"/>
<path d="M119.59 224.352H128.321V213.043H119.59V224.352Z" fill="#407EDE"/>
<path d="M119.59 285.344H128.321V274.035H119.59V285.344Z" fill="#407EDE"/>
<path d="M106.174 242.399H114.905V231.088H106.174V242.399Z" fill="#407EDE"/>
<path d="M106.174 304.661H114.905V293.352H106.174V304.661Z" fill="#407EDE"/>
<path d="M106.174 260.73H114.905V249.419H106.174V260.73Z" fill="#407EDE"/>
<path d="M131.122 260.73H139.852V249.419H131.122V260.73Z" fill="#407EDE"/>
<path d="M131.122 304.661H139.852V293.352H131.122V304.661Z" fill="#407EDE"/>
<path d="M142.099 224.352H150.83V213.043H142.099V224.352Z" fill="#407EDE"/>
<path d="M212.896 174.465H217.746V168.184H212.896V174.465Z" fill="#407EDE"/>
<path d="M222.985 174.465H227.836V168.184H222.985V174.465Z" fill="#407EDE"/>
<path d="M212.896 185.553H217.746V179.27H212.896V185.553Z" fill="#407EDE"/>
<path d="M233.075 185.553H237.925V179.27H233.075V185.553Z" fill="#407EDE"/>
<path d="M222.985 196.641H227.836V190.358H222.985V196.641Z" fill="#407EDE"/>
<path d="M233.075 196.641H237.925V190.358H233.075V196.641Z" fill="#407EDE"/>
<path d="M212.896 207.729H217.746V201.446H212.896V207.729Z" fill="#407EDE"/>
<path d="M233.075 207.729H237.925V201.446H233.075V207.729Z" fill="#407EDE"/>
<path d="M212.896 218.818H217.746V212.534H212.896V218.818Z" fill="#407EDE"/>
<path d="M222.985 218.818H227.836V212.534H222.985V218.818Z" fill="#407EDE"/>
<path d="M233.075 229.906H237.925V223.623H233.075V229.906Z" fill="#407EDE"/>
<path d="M212.896 252.082H217.746V245.799H212.896V252.082Z" fill="#407EDE"/>
<path d="M291.481 233.545H296.331V227.264H291.481V233.545Z" fill="#407EDE"/>
<path d="M318.425 233.545H323.275V227.264H318.425V233.545Z" fill="#407EDE"/>
<path d="M304.594 216.48H309.444V210.197H304.594V216.48Z" fill="#407EDE"/>
<path d="M382.553 225.959H387.403V219.678H382.553V225.959Z" fill="#407EDE"/>
<path d="M398.773 225.959H403.623V219.678H398.773V225.959Z" fill="#407EDE"/>
<path d="M398.773 237.16H403.623V230.877H398.773V237.16Z" fill="#407EDE"/>
<path d="M382.553 248.358H387.403V242.075H382.553V248.358Z" fill="#407EDE"/>
<path d="M398.773 248.358H403.623V242.075H398.773V248.358Z" fill="#407EDE"/>
<path d="M382.553 259.557H387.403V253.274H382.553V259.557Z" fill="#407EDE"/>
<path d="M390.662 270.755H395.512V264.474H390.662V270.755Z" fill="#407EDE"/>
<path d="M398.773 270.755H403.623V264.474H398.773V270.755Z" fill="#407EDE"/>
<path d="M398.773 281.954H403.623V275.672H398.773V281.954Z" fill="#407EDE"/>
<path d="M382.553 293.154H387.403V286.871H382.553V293.154Z" fill="#407EDE"/>
<path d="M390.662 293.154H395.512V286.871H390.662V293.154Z" fill="#407EDE"/>
<path d="M315.014 216.48H319.864V210.197H315.014V216.48Z" fill="#407EDE"/>
<path d="M300.463 246.186H305.312V239.903H300.463V246.186Z" fill="#407EDE"/>
<path d="M291.564 258.825H291.481V258.361C291.51 258.516 291.538 258.672 291.564 258.825Z" fill="#407EDE"/>
<path d="M309.444 258.825H314.294V252.544H309.444V258.825Z" fill="#407EDE"/>
<path d="M318.425 258.825H323.275V252.544H318.425V258.825Z" fill="#407EDE"/>
<path d="M305.313 266.715C305.12 266.21 304.931 265.699 304.748 265.183H305.313V266.715Z" fill="#407EDE"/>
<path d="M295.091 284.105H291.481V277.824H294.355C294.623 279.996 294.868 282.101 295.091 284.105Z" fill="#407EDE"/>
<path d="M314.294 279.931C313.381 279.383 312.518 278.67 311.7 277.824H314.294V279.931Z" fill="#407EDE"/>
<path d="M318.425 284.105H323.275V277.824H318.425V284.105Z" fill="#407EDE"/>
<path d="M293.008 308.908H291.481V303.104H296.309L293.008 308.908Z" fill="#407EDE"/>
<path d="M142.099 285.344H150.83V274.035H142.099V285.344Z" fill="#407EDE"/>
<path d="M170.179 218.905H196.956V215.994H170.179V218.905Z" fill="#4284E2"/>
<path d="M254.252 210.661H276.013V207.75H254.252V210.661Z" fill="#4284E2"/>
<path d="M254.252 216.945H276.013V214.033H254.252V216.945Z" fill="#4284E2"/>
<path d="M254.252 235.79H276.013V232.881H254.252V235.79Z" fill="#4284E2"/>
<path d="M341.445 230.173H363.206V227.264H341.445V230.173Z" fill="#4284E2"/>
<path d="M341.445 236.456H363.206V233.545H341.445V236.456Z" fill="#4284E2"/>
<path d="M341.445 249.021H363.206V246.109H341.445V249.021Z" fill="#4284E2"/>
<path d="M341.445 267.868H363.206V264.957H341.445V267.868Z" fill="#4284E2"/>
<path d="M341.445 280.432H363.206V277.521H341.445V280.432Z" fill="#4284E2"/>
<path d="M341.445 292.997H363.206V290.085H341.445V292.997Z" fill="#4284E2"/>
<path d="M363.206 305.561H349.259C348.649 304.547 347.977 303.576 347.246 302.652H363.206V305.561Z" fill="#4284E2"/>
<path d="M254.252 254.638H276.013V251.726H254.252V254.638Z" fill="#4284E2"/>
<path d="M254.252 267.202H276.013V264.292H254.252V267.202Z" fill="#4284E2"/>
<path d="M170.179 227.264H196.956V224.352H170.179V227.264Z" fill="#4284E2"/>
<path d="M170.179 235.62H196.956V232.711H170.179V235.62Z" fill="#4284E2"/>
<path d="M170.179 252.336H196.956V249.425H170.179V252.336Z" fill="#4284E2"/>
<path d="M170.179 269.051H196.956V266.139H170.179V269.051Z" fill="#4284E2"/>
<path d="M170.179 276.241V274.497H173.468C173.465 274.499 173.459 274.499 173.455 274.501C172.239 274.834 171.15 275.444 170.179 276.241Z" fill="#4284E2"/>
<path d="M185.518 294.123H170.179V291.691L196.956 292.102V292.256C196.498 292.233 196.039 292.222 195.575 292.222C192.026 292.222 188.633 292.896 185.518 294.123Z" fill="#4284E2"/>
<path d="M170.179 309.236V307.928H170.759C170.555 308.356 170.36 308.794 170.179 309.236Z" fill="#4284E2"/>
<path d="M254.252 198.097H276.013V195.186H254.252V198.097Z" fill="#4A8FE6"/>
<path d="M102.403 171.621C102.426 169.821 103.903 168.38 105.703 168.403C107.503 168.425 108.943 169.903 108.921 171.702C108.898 173.502 107.421 174.942 105.621 174.92C103.821 174.897 102.381 173.419 102.403 171.621ZM99.1883 174.209L105.473 186.683L112.069 174.372C114.022 169.855 110.887 164.704 105.971 164.498C105.899 164.496 105.826 164.494 105.752 164.492C105.679 164.492 105.606 164.492 105.533 164.492C100.614 164.573 97.3498 169.645 99.1883 174.209Z" class="svg-tint-color"/>
<path d="M9.943 293.639C12.5758 293.118 14.6157 290.995 15.1051 288.317C16.4903 280.745 20.8713 267.415 34.56 267.172C50.6835 266.884 53.5588 278.973 53.1782 287.778C53.0826 289.994 54.888 291.801 57.0703 291.711C61.8397 291.513 68.7951 292.619 68.7951 300.754C68.7951 300.754 73.1081 316.075 60.8428 319.768C48.5774 323.462 42.647 318.604 37.3904 323.529C32.5354 328.078 16.7001 332.802 9.05236 322.45C7.85636 320.831 6.36847 319.456 4.68786 318.367C1.81612 316.507 -1.96348 311.994 1.19623 301.643C2.42329 297.622 5.67823 294.552 9.73531 293.682C9.80398 293.667 9.87321 293.653 9.943 293.639Z" class="svg-tint-color"/>
<path d="M39.8465 306.959C38.7352 307.814 37.6846 308.789 36.7302 309.894C36.489 310.173 36.2545 310.461 36.0265 310.759C36.1101 309.397 36.2719 308.319 36.5242 307.619C36.8147 306.815 37.658 305.452 38.6928 303.523C39.8221 302.103 41.2017 300.653 42.678 299.405C44.2707 298.065 46.0121 296.924 47.9945 296.292C45.9234 296.615 44.0102 297.502 42.2362 298.606C41.6755 298.956 41.107 299.34 40.5453 299.755C42.9091 294.419 45.2318 286.609 44.2755 276.224C44.2755 276.224 44.007 283.205 42.5058 289.578C42.2589 288.543 41.9168 287.554 41.5232 286.603C40.5251 284.317 39.8657 283.314 38.4815 281.351C39.6371 283.469 40.1778 284.536 40.9117 286.889C42.3719 291.906 41.4236 293.595 40.6348 295.304C38.2895 300.38 35.452 304.034 34.2441 307.009C33.7911 306.042 33.3304 305.084 32.8623 304.13C31.8603 302.094 30.831 300.079 29.7589 298.093C29.5851 297.772 29.4099 297.45 29.2342 297.128C29.1077 296.7 28.9188 296.099 28.6974 294.714C28.5827 294.009 28.4871 293.296 28.4194 292.578C28.2484 290.725 28.2484 289.711 28.2738 288.237C28.1099 289.745 28.0218 290.746 28.0236 292.604C28.0259 293.337 28.0569 294.071 28.1082 294.806C28.1164 294.926 28.1271 295.047 28.1374 295.169L28.1196 295.137C27.5605 294.162 26.9927 293.193 26.4016 292.243C25.8116 291.29 25.2052 290.353 24.5704 289.44C23.9355 288.528 23.2692 287.643 22.5483 286.824C23.2191 287.698 23.8281 288.628 24.405 289.582C24.9814 290.536 25.5278 291.513 26.0569 292.503C26.587 293.491 27.0935 294.495 27.5905 295.506C28.088 296.516 28.5696 297.538 29.0421 298.563C29.1029 298.694 29.1629 298.827 29.2232 298.958C28.9062 298.861 28.6052 298.773 28.0738 298.638C25.6475 298.028 23.6429 297.856 21.8142 297.727C23.4834 298.028 25.487 298.402 27.9192 299.297C28.4901 299.508 29.1616 299.776 29.72 300.053C30.4222 301.619 31.101 303.196 31.763 304.783C32.1978 305.83 32.6246 306.88 33.0396 307.935C33.2457 308.461 33.4518 308.991 33.6492 309.518L33.6543 309.531C33.6526 309.666 33.656 309.799 33.6665 309.93C33.74 310.869 33.9177 313.13 34.109 316.011C32.5853 315.221 30.8989 314.623 29.0486 314.263C27.0159 313.869 25.5055 313.932 22.3666 313.82C22.1067 313.648 21.7046 313.309 21.3094 312.862C20.331 311.754 19.6382 310.306 19.3773 308.564C19.4816 310.33 20.047 311.908 20.9799 313.206C21.1231 313.405 21.275 313.597 21.4353 313.781C20.5464 313.736 19.6601 313.67 18.7769 313.562C17.8144 313.44 16.8553 313.268 15.9201 312.978C14.9881 312.688 14.07 312.282 13.2701 311.635C14.0283 312.346 14.9328 312.834 15.8591 313.204C16.7153 313.545 17.5991 313.786 18.4884 313.981C18.3088 314.011 18.1291 314.041 17.9493 314.071C17.2937 314.189 16.6403 314.321 15.9922 314.48C15.3444 314.643 14.7 314.823 14.0663 315.046C13.4338 315.27 12.8098 315.528 12.2131 315.852C12.8295 315.581 13.4643 315.379 14.1042 315.21C14.7455 315.046 15.394 314.922 16.0434 314.817C16.6938 314.714 17.3472 314.638 18.0008 314.58C18.6532 314.522 20.5279 314.454 21.1749 314.441H21.1743C24.526 314.892 26.5541 314.909 28.8233 315.54C30.7928 316.09 32.57 316.928 34.0489 317.944C34.1136 317.987 34.1773 318.034 34.2413 318.079C34.7229 325.9 35.1596 336.61 34.1361 339.317C32.6093 343.355 41.8749 341.903 41.8749 341.903C41.8749 341.903 38.7579 340.167 37.5246 331.083C36.8076 325.801 36.0068 318.973 35.96 313.818C36.0021 313.723 36.0452 313.625 36.0897 313.53C36.234 313.217 36.3928 312.909 36.5582 312.606C36.8911 311.998 37.258 311.408 37.6539 310.841C38.4467 309.705 39.3531 308.663 40.3399 307.718C41.8998 306.182 44.3049 304.509 47.0941 303.334C44.2302 304.165 41.6264 305.55 39.8465 306.959Z" class="svg-primary-color"/>
<path d="M103.878 308.815C110.123 308.931 116.281 307.219 121.512 303.808C125.718 301.065 129.661 297.025 130.388 291.326C132.054 278.299 124.549 278.73 122.709 273.418C120.868 268.106 126.328 265.728 123.971 256.05C122.706 250.852 118.7 248.602 112.453 240.249C106.207 231.895 98.6401 227.614 93.1184 230.729C87.5968 233.844 87.8183 240.543 83.7124 242.775C79.6065 245.007 73.2968 252.793 75.7038 267.601C78.1108 282.407 61.8287 276.885 68.2 294.015C72.8712 306.575 93.3059 308.619 103.878 308.815Z" class="svg-tint-color"/>
<path d="M96.4441 297.617C97.0247 305.844 97.8746 338.608 96.6406 341.456C94.8002 345.704 104.454 340.412 104.454 340.412C104.454 340.412 101.889 320.85 100.402 311.296C99.7406 307.043 98.5276 294.249 98.5162 293.135C98.5669 293.034 98.6185 292.933 98.6724 292.832C98.8462 292.503 99.0376 292.179 99.2371 291.859C99.6384 291.221 100.081 290.6 100.558 290.003C101.514 288.809 102.606 287.713 103.796 286.719C106.036 284.794 109.118 283.146 111.938 282.109C108.405 283.002 105.282 284.484 103.201 285.921C101.861 286.819 100.595 287.846 99.4444 289.01C99.1538 289.303 98.8709 289.605 98.5961 289.917C98.6969 288.486 98.8919 287.35 99.1961 286.617C99.5462 285.769 100.563 284.336 101.81 282.307C103.129 280.857 104.81 279.306 106.615 277.976C108.577 276.535 110.67 275.354 113.024 274.7C110.556 275.036 108.263 275.951 106.082 277.134C105.394 277.51 104.72 277.909 104.044 278.343C106.893 272.731 109.693 264.513 108.541 253.592C108.541 253.592 108.217 260.934 106.407 267.638C106.109 266.549 105.697 265.509 105.223 264.508C104.017 262.1 103.221 261.044 101.556 258.984C102.943 261.203 103.599 262.328 104.485 264.811C106.189 269.915 105.174 271.728 104.152 273.661C101.324 279.001 97.9036 282.844 96.4473 285.973C95.9013 284.957 95.346 283.948 94.7815 282.944C93.5737 280.803 92.3328 278.683 91.0402 276.595C90.8309 276.256 90.6198 275.918 90.4078 275.581C90.2113 275.001 90.1889 274.965 89.993 274.148C89.9086 273.781 89.8289 273.412 89.7608 273.04C89.6225 272.297 89.5071 271.549 89.4253 270.793C89.3456 270.039 89.2805 269.279 89.2569 268.518C89.2146 267.717 89.2382 266.826 89.2498 266.227C89.178 266.805 89.0595 267.707 89.018 268.516C88.962 269.281 88.9474 270.05 88.9484 270.821C88.9514 271.592 88.9884 272.364 89.0505 273.135C89.0603 273.264 89.0734 273.392 89.0855 273.519L89.0644 273.485C88.3902 272.46 87.7056 271.44 86.9931 270.441C86.2819 269.44 85.5509 268.452 84.7856 267.494C84.0201 266.534 83.2169 265.604 82.3479 264.742C83.1564 265.66 83.8908 266.639 84.5861 267.642C85.281 268.647 85.9397 269.674 86.5775 270.714C87.2167 271.754 87.827 272.812 88.4263 273.874C89.026 274.937 89.6066 276.009 90.1764 277.089C90.2495 277.227 90.3217 277.366 90.3947 277.504C89.1005 277.158 87.8282 276.911 86.5047 276.705C84.3438 276.397 83.5405 276.337 81.4629 276.21C83.5188 276.531 84.3025 276.666 86.4104 277.175C88.5631 277.721 90.1088 278.271 90.9933 278.657C91.8399 280.303 92.6584 281.963 93.4562 283.632C93.9807 284.732 94.495 285.838 94.9953 286.948C95.1957 287.395 95.4903 287.812 95.5913 288.291C95.959 290.031 96.4441 297.617 96.4441 297.617Z" class="svg-primary-color"/>
<path d="M388.789 179.351C388.819 177.551 390.303 176.117 392.103 176.147C393.901 176.179 395.336 177.663 395.306 179.461C395.274 181.261 393.791 182.694 391.993 182.664C390.193 182.634 388.758 181.15 388.789 179.351ZM385.562 181.925L391.792 194.428L398.442 182.144C400.416 177.637 397.303 172.471 392.387 172.244C392.314 172.242 392.241 172.238 392.168 172.238C392.096 172.237 392.023 172.237 391.95 172.237C387.031 172.297 383.743 177.354 385.562 181.925Z" class="svg-primary-color"/>
<path d="M53.2153 335.536C53.2153 335.536 53.7559 326.555 61.5729 327.387C61.5729 327.387 72.2173 310.422 83.3606 334.372C83.3606 334.372 93.4224 328.935 97.1232 340.76C97.1232 340.76 103.319 329.217 112.134 333.042C120.949 336.866 123.956 347.371 123.956 347.371L58.8961 348.757L53.2153 335.536Z" class="svg-tint-color"/>
<path d="M247.447 165.705C247.124 165.92 241.394 176.215 241.394 176.215L233.684 169.432L241.175 156.942L247.447 160.462V165.705Z" fill="#FFC0BB"/>
<path d="M236.84 164.169C237.791 166.856 239.741 170.414 243.64 172.209C245.285 169.292 247.262 165.828 247.448 165.705V160.462L241.176 156.943L236.84 164.169Z" fill="#F99893"/>
<path d="M166.85 269.698C166.85 269.698 164.67 268.16 162.586 273.083C160.503 278.007 163.302 279.965 163.302 279.965C163.302 279.965 166.886 277.313 166.85 276.808C166.816 276.303 166.687 269.945 166.687 269.945L166.85 269.698Z" fill="white"/>
<path d="M170.435 267.922C170.435 267.922 168.671 266.835 166.688 269.945C165.956 271.09 165.194 272.806 164.48 275.356C161.828 284.826 164.48 284.826 164.48 284.826L168.931 282.932C168.931 282.932 173.191 272.074 172.939 271.189C172.686 270.306 170.435 267.922 170.435 267.922Z" class="svg-tint-color"/>
<path d="M207.874 243.54H133.839C133.26 243.54 132.791 244.01 132.791 244.588V245.394C132.791 245.974 133.26 246.444 133.839 246.444H207.874C208.452 246.444 208.922 245.974 208.922 245.394V244.588C208.922 244.01 208.452 243.54 207.874 243.54Z" fill="#283F56"/>
<path d="M194.625 258.533H189.511V244.992H194.625V258.533Z" fill="#283F56"/>
<path d="M153.579 254.84H151.866C150.641 254.84 149.646 253.844 149.646 252.617V242.341H155.8V252.617C155.8 253.844 154.806 254.84 153.579 254.84Z" fill="#283F56"/>
<path d="M154.948 251.762C155.684 252.602 173.603 269.47 173.603 269.47L172.087 271.554L153.148 252.875L154.948 251.762Z" fill="#283F56"/>
<path d="M317.697 282.867H318.7C320.792 282.867 322.489 284.564 322.489 286.656V291.517H317.817C317.817 291.517 315.735 287.919 314.977 288.676C314.219 289.434 317.697 282.867 317.697 282.867Z" fill="#FFE5B6"/>
<path d="M223.024 319.671C223.024 334.832 210.735 347.122 195.575 347.122C180.416 347.122 168.126 334.832 168.126 319.671C168.126 304.511 180.416 292.222 195.575 292.222C210.735 292.222 223.024 304.511 223.024 319.671Z" fill="#1A1A1A"/>
<path d="M207.949 319.671C207.949 326.504 202.408 332.044 195.575 332.044C188.742 332.044 183.202 326.504 183.202 319.671C183.202 312.838 188.742 307.299 195.575 307.299C202.408 307.299 207.949 312.838 207.949 319.671Z" fill="#9E9DA2"/>
<path d="M353.158 319.671C353.158 334.832 340.869 347.122 325.709 347.122C310.548 347.122 298.259 334.832 298.259 319.671C298.259 304.511 310.548 292.222 325.709 292.222C340.869 292.222 353.158 304.511 353.158 319.671Z" fill="#1A1A1A"/>
<path d="M338.081 319.671C338.081 326.504 332.542 332.044 325.709 332.044C318.876 332.044 313.336 326.504 313.336 319.671C313.336 312.838 318.876 307.299 325.709 307.299C332.542 307.299 338.081 312.838 338.081 319.671Z" fill="#9E9DA2"/>
<path d="M228.351 315.628H163.503C160.348 315.628 157.792 313.072 157.792 309.919V304.046C157.792 300.891 160.348 298.335 163.503 298.335H228.351V315.628Z" fill="#283F56"/>
<path d="M240.768 265.971H186.762C184.706 265.971 183.041 264.304 183.041 262.247V259.383C183.041 257.326 184.706 255.661 186.762 255.661H240.768C242.824 255.661 244.489 257.326 244.489 259.383V262.247C244.489 264.304 242.824 265.971 240.768 265.971Z" class="svg-tint-color"/>
<path d="M242.339 265.004C242.339 265.004 237.424 267.719 233.448 279.082C229.47 290.443 230.323 307.584 255.036 308.909H293.008L296.795 302.249C296.795 302.249 293.577 256.922 286.19 236.847H298.689C298.689 236.847 302.463 275.431 315.718 280.638C316.994 281.138 317.817 282.386 317.817 283.756V291.392L297.742 317.336H231.648C231.648 317.336 216.118 318.706 212.331 292.338L167.52 291.652C165.063 291.612 163.323 289.23 164.044 286.882C165.443 282.332 168.289 275.912 173.455 274.501C181.65 272.263 242.339 265.004 242.339 265.004Z" fill="#333333"/>
<path d="M169.943 275.974C170.003 276.077 170.066 276.179 170.132 276.282H234.514L235.171 274.767C238.715 267.005 242.339 265.003 242.339 265.003H176.305C170.675 265.003 167.065 271.133 169.943 275.974Z" fill="#283F56"/>
<path d="M166.042 298.335H214.145C219.315 298.335 222.943 293.236 221.246 288.355C218.683 280.982 212.727 273.053 198.063 271.694C179.124 269.941 167.671 285.075 163.14 293.476C161.955 295.671 163.548 298.335 166.042 298.335Z" class="svg-tint-color"/>
<path d="M297.742 317.336L312.514 293.474C312.514 293.474 320.09 287.602 335.052 290.633C344.343 292.516 349.837 298.717 352.666 303.144C353.978 305.198 352.514 307.889 350.078 307.889H327.331C320.356 307.889 313.759 311.045 309.382 316.475L308.798 317.199C305.64 321.117 300.876 323.396 295.843 323.396C292.441 323.396 289.167 322.098 286.688 319.766L284.107 317.336H297.742Z" class="svg-tint-color"/>
<path d="M299.712 213.09C299.712 211.084 297.879 209.576 295.91 209.963C287.533 211.612 278.739 218.323 278.739 226.356C278.739 234.387 287.533 241.098 295.91 242.747C297.879 243.134 299.712 241.626 299.712 239.62V213.09Z" class="svg-tint-color"/>
<path d="M299.712 213.161V239.549C305.307 237.772 309.36 232.538 309.36 226.356C309.36 220.172 305.307 214.939 299.712 213.161Z" fill="white"/>
<path d="M203.494 243.54H138.219V204.18H203.494V243.54Z" class="svg-tint-color"/>
<path d="M204.882 199.223H136.83V204.18H204.882V199.223Z" fill="#D12A56"/>
<path d="M154.072 251.526C154.072 252.271 153.468 252.875 152.723 252.875C151.977 252.875 151.372 252.271 151.372 251.526C151.372 250.779 151.977 250.177 152.723 250.177C153.468 250.177 154.072 250.779 154.072 251.526Z" fill="#282828"/>
<path d="M210.469 283.656H179.383C179.023 283.656 178.733 283.366 178.733 283.007V282.507C178.733 282.148 179.023 281.858 179.383 281.858H210.469C210.826 281.858 211.118 282.148 211.118 282.507V283.007C211.118 283.366 210.826 283.656 210.469 283.656Z" fill="#333333"/>
<path d="M210.469 288.209H179.383C179.023 288.209 178.733 287.917 178.733 287.559V287.058C178.733 286.701 179.023 286.409 179.383 286.409H210.469C210.826 286.409 211.118 286.701 211.118 287.058V287.559C211.118 287.917 210.826 288.209 210.469 288.209Z" fill="#333333"/>
<path d="M266.783 285.073L264.411 310.559L262.371 314.232L258.706 311.58L258.78 284.42L266.783 285.073Z" fill="#FFC0BB"/>
<path d="M280.545 282.683L279.375 310.559L277.338 314.232L273.672 311.58L273.745 284.42L280.545 282.683Z" fill="#FFC0BB"/>
<path d="M288.712 315.965L272.89 316.019C272.767 316.019 272.666 315.92 272.666 315.796L272.662 314.606C272.662 314.483 272.761 314.382 272.885 314.38L288.707 314.327C288.83 314.327 288.931 314.427 288.931 314.55L288.935 315.74C288.937 315.863 288.836 315.965 288.712 315.965Z" fill="#DAEEF7"/>
<path d="M273.39 309.404L272.866 313.96C272.801 314.522 273.117 315.031 273.53 315.029L287.867 314.982C288.239 314.98 288.606 314.746 288.8 314.308C289 313.859 289.038 313.186 288.392 312.28C287.103 310.469 282.884 310.042 280.816 308.499L274.138 308.521C273.764 308.523 273.448 308.897 273.39 309.404Z" class="svg-tint-color"/>
<path d="M279.812 311.146C279.707 311.085 279.669 310.909 279.729 310.776C280.008 310.151 280.884 308.63 282.674 308.935C282.777 308.953 282.848 309.09 282.832 309.232L282.83 309.236C282.815 309.374 282.721 309.464 282.62 309.447C281.015 309.178 280.272 310.519 280.045 311.043C279.997 311.156 279.898 311.199 279.812 311.146Z" fill="#DAEEF7"/>
<path d="M281.303 311.728C281.198 311.665 281.16 311.491 281.218 311.358C281.499 310.733 282.373 309.21 284.165 309.517C284.268 309.533 284.339 309.672 284.323 309.812L284.321 309.818C284.304 309.954 284.212 310.044 284.111 310.029C282.506 309.76 281.763 311.101 281.537 311.625C281.488 311.738 281.389 311.781 281.303 311.728Z" fill="#DAEEF7"/>
<path d="M282.689 312.271C282.584 312.207 282.547 312.033 282.607 311.9C282.885 311.275 283.759 309.752 285.552 310.059C285.655 310.076 285.726 310.215 285.709 310.355L285.707 310.361C285.692 310.497 285.599 310.587 285.498 310.57C283.892 310.303 283.149 311.644 282.923 312.168C282.874 312.278 282.775 312.323 282.689 312.271Z" fill="#DAEEF7"/>
<path d="M273.061 312.269H273.203V311.03H273.061V312.269Z" fill="#312B28"/>
<path d="M273.609 315.029L273.607 314.55C273.607 314.454 273.545 314.372 273.461 314.342C273.467 314.331 273.47 314.32 273.476 314.308C273.674 313.859 273.712 313.186 273.068 312.28C273.066 312.276 273.062 312.273 273.061 312.269L273.203 311.03C273.283 311.023 273.367 311.019 273.455 311.019C274.554 311.019 276.299 311.616 277.357 315.016L273.609 315.029Z" fill="#F84D64"/>
<path d="M210.469 292.759H179.383C179.023 292.759 178.733 292.469 178.733 292.11V291.61C178.733 291.251 179.023 290.961 179.383 290.961H210.469C210.826 290.961 211.118 291.251 211.118 291.61V292.11C211.118 292.469 210.826 292.759 210.469 292.759Z" fill="#333333"/>
<path d="M270.503 247.561C272.378 247.705 280.165 250.879 281.174 256.503C282.184 262.128 281.174 305.825 281.174 305.825H272.522C272.522 305.825 265.599 271.212 265.599 270.203C265.599 269.193 270.503 247.561 270.503 247.561Z" fill="#282828"/>
<path d="M211.087 235.016C211.231 235.448 209.186 254.772 228.884 256.359C248.581 257.946 259.974 260.541 259.974 260.541C259.974 260.541 257.235 304.238 257.379 306.401C257.379 306.401 264.156 307.554 267.041 307.122C267.041 307.122 282.472 258.666 278.002 248.716C273.53 238.763 237.91 235.016 237.91 235.016H211.087Z" fill="#333333"/>
<path d="M243.879 200.271C243.879 200.271 244.081 209.677 244.708 210.549C245.333 211.419 275.184 222.822 275.184 222.822L270.284 228.362L248.291 222.079C248.291 222.079 232.538 216.428 232.699 216.02C232.86 215.612 233.726 209.825 234.507 207.559C235.285 205.291 238.225 200.168 238.225 200.168L243.879 200.271Z" fill="#F9B7B4"/>
<path d="M232.868 167.45C232.868 167.45 212.924 174.697 210.652 214.067L209.679 236.456C209.679 236.456 232.394 246.191 245.372 237.755C245.372 237.755 246.687 197.794 248.053 183.184C248.285 180.72 247.281 178.305 245.376 176.725C241.024 173.122 233.601 167.112 232.868 167.45Z" fill="#FEB546"/>
<path d="M225.945 195.423C225.945 195.423 221.069 215.579 227.885 221.117C232.136 224.571 271.775 231.344 271.775 231.344L274.331 225.166C274.331 225.166 242.766 213.9 240.882 212.596C238.998 211.29 242.16 194.059 242.16 194.059L225.945 195.423Z" fill="#FFC0BB"/>
<path d="M241.363 174.742C239.578 173.157 237.018 172.74 234.817 173.668C231.771 174.954 227.41 178.608 225.052 188.893L223.054 197.768C223.054 197.768 237.871 201.405 242.416 201.199L244.742 187.479C244.742 187.479 246.059 178.905 241.363 174.742Z" fill="#F4A640"/>
<path d="M192.851 199.224H180.717L157.968 243.54C159.953 243.54 166.132 243.54 170.102 243.54L192.851 199.224Z" fill="#333333"/>
<path d="M173.479 215.189C172.963 214.924 172.327 215.128 172.061 215.646L169.668 220.307C169.402 220.823 169.608 221.459 170.124 221.725L178.267 225.905C178.784 226.171 179.42 225.965 179.686 225.449L182.079 220.788C182.345 220.271 182.139 219.635 181.622 219.369L173.479 215.189ZM177.586 227.232L169.443 223.052C168.195 222.41 167.701 220.874 168.341 219.626L170.734 214.963C171.374 213.715 172.912 213.221 174.16 213.863L182.303 218.043C183.551 218.683 184.047 220.221 183.405 221.469L181.012 226.13C180.372 227.378 178.834 227.872 177.586 227.232Z" fill="#FFE5B6"/>
<path d="M239.321 152.622C240.326 154.808 239.51 157.259 237.499 158.097C235.487 158.937 233.044 157.846 232.039 155.661C231.034 153.475 231.85 151.026 233.861 150.186C235.871 149.346 238.316 150.437 239.321 152.622Z" fill="#FFC0BB"/>
<path d="M273.388 315.965L257.566 316.019C257.443 316.019 257.342 315.92 257.342 315.796L257.338 314.606C257.336 314.483 257.437 314.382 257.561 314.38L273.382 314.327C273.506 314.327 273.607 314.427 273.607 314.55L273.611 315.74C273.611 315.863 273.512 315.965 273.388 315.965Z" fill="#DAEEF7"/>
<path d="M258.066 309.404L257.542 313.96C257.476 314.522 257.793 315.031 258.204 315.029L272.542 314.982C272.915 314.98 273.281 314.746 273.476 314.308C273.674 313.859 273.712 313.186 273.068 312.28C271.779 310.469 267.56 310.042 265.492 308.499L258.812 308.521C258.44 308.523 258.124 308.897 258.066 309.404Z" class="svg-tint-color"/>
<path d="M264.486 311.146C264.383 311.085 264.343 310.909 264.403 310.776C264.684 310.151 265.558 308.63 267.35 308.935C267.453 308.953 267.524 309.09 267.505 309.232V309.236C267.489 309.374 267.397 309.464 267.296 309.447C265.69 309.178 264.948 310.519 264.721 311.043C264.673 311.156 264.573 311.199 264.486 311.146Z" fill="#DAEEF7"/>
<path d="M265.977 311.728C265.874 311.665 265.835 311.491 265.894 311.358C266.173 310.733 267.049 309.21 268.839 309.517C268.944 309.533 269.013 309.672 268.997 309.812V309.818C268.98 309.954 268.886 310.044 268.787 310.029C267.182 309.76 266.437 311.101 266.212 311.625C266.164 311.738 266.063 311.781 265.977 311.728Z" fill="#DAEEF7"/>
<path d="M267.363 312.271C267.26 312.207 267.221 312.033 267.281 311.9C267.559 311.275 268.435 309.752 270.226 310.059C270.331 310.076 270.402 310.215 270.383 310.355V310.361C270.366 310.497 270.272 310.587 270.173 310.57C268.568 310.303 267.825 311.644 267.599 312.168C267.55 312.278 267.451 312.323 267.363 312.271Z" fill="#DAEEF7"/>
<path d="M257.532 314.103C257.532 314.056 257.536 314.01 257.542 313.961C257.536 314.01 257.532 314.056 257.532 314.103Z" fill="#312B28"/>
<path d="M258.202 315.029C257.826 315.029 257.531 314.604 257.532 314.103C257.532 314.056 257.536 314.009 257.542 313.96L257.879 311.03C257.957 311.023 258.041 311.019 258.131 311.019C259.228 311.019 260.975 311.616 262.031 315.016L258.204 315.029C258.204 315.029 258.204 315.029 258.202 315.029Z" fill="#F84D64"/>
<path d="M301.329 324.038H221.306C219.418 324.038 217.886 322.508 217.886 320.618V317.983C217.886 316.095 219.418 314.563 221.306 314.563H301.329C303.219 314.563 304.749 316.095 304.749 317.983V320.618C304.749 322.508 303.219 324.038 301.329 324.038Z" fill="#283F56"/>
<path d="M180.911 347.371H127.883C127.883 347.371 127.612 347.288 127.155 347.137H180.612C180.711 347.215 180.81 347.294 180.911 347.371Z" fill="#F4FCFF"/>
<path d="M180.612 347.137H127.155C126.335 346.867 124.915 346.385 123.398 345.795C122.876 344.476 121.965 342.481 120.567 340.405C122.041 340.221 124.053 340.116 126.719 340.116C127.095 340.116 127.481 340.118 127.883 340.122C127.883 340.122 116.493 331.657 129.475 331.657C131.021 331.657 132.91 331.777 135.206 332.045C156.797 334.569 158.816 341.007 158.816 341.007C158.816 341.007 159.983 338.943 163.619 338.943C166.919 338.943 172.258 340.644 180.612 347.137Z" fill="#DCE9FA"/>
<path d="M123.398 345.795C118.853 344.027 113.43 341.29 120.567 340.405C121.965 342.481 122.876 344.476 123.398 345.795Z" fill="#E2F2FF"/>
<path d="M250.493 347.219C250.452 347.193 250.409 347.165 250.368 347.137H261.808L250.493 347.219Z" fill="#F4FCFF"/>
<path d="M261.808 347.137H250.368C240.53 340.702 243.451 339.059 249.006 339.059C254.812 339.059 263.49 340.854 263.49 340.854C263.965 340.006 264.959 339.658 266.272 339.658C272.286 339.658 284.981 346.968 284.981 346.968L261.808 347.137Z" fill="#DCE9FA"/>
<path d="M358.742 347.247H298.259C298.259 347.247 298.227 347.208 298.173 347.137H358.65C358.712 347.21 358.742 347.247 358.742 347.247Z" fill="#F4FCFF"/>
<path d="M358.65 347.137H298.173C297.634 346.437 294.932 342.597 300.41 342.597C301.505 342.597 302.923 342.751 304.75 343.112C304.75 343.112 301.297 338.668 304.351 336.915C309.382 343.14 317.08 347.122 325.709 347.122C334.384 347.122 342.121 343.095 347.15 336.812C354.06 341.89 358.01 346.388 358.65 347.137Z" fill="#DCE9FA"/>
<path d="M325.709 347.122C317.08 347.122 309.382 343.14 304.351 336.915C305.099 336.485 306.24 336.217 307.921 336.217C309.629 336.217 311.893 336.494 314.868 337.158L325.709 340.79C325.709 340.79 321.041 334.883 319.192 330.192C321.086 331.367 323.318 332.044 325.709 332.044C328.899 332.044 331.807 330.838 334.002 328.854C339.153 331.365 343.552 334.168 347.15 336.812C342.12 343.095 334.383 347.122 325.709 347.122Z" fill="#D1D1D1"/>
<path d="M325.709 332.044C323.318 332.044 321.086 331.367 319.192 330.192C317.976 327.101 317.983 324.536 321.359 324.536C322.833 324.536 324.949 325.026 327.887 326.173C330.028 327.009 332.069 327.913 334.002 328.854C331.807 330.838 328.899 332.044 325.709 332.044Z" fill="#ECEBEC"/>
<path d="M216.245 347.219H200.26C200.26 347.219 200.247 347.191 200.225 347.137H216.152C216.183 347.165 216.213 347.191 216.245 347.219Z" fill="#F4FCFF"/>
<path d="M216.151 347.137H200.225C200.193 347.056 200.14 346.922 200.086 346.751C203.941 346.115 207.524 344.674 210.658 342.611C212.2 343.784 214.018 345.275 216.151 347.137Z" fill="#DCE9FA"/>
<path d="M200.086 346.751C199.828 345.93 199.553 344.311 201.375 344.311C201.987 344.311 202.833 344.493 203.995 344.948C203.995 344.948 200.84 338.784 203.679 338.784C204.828 338.784 206.951 339.787 210.658 342.611C207.524 344.674 203.941 346.115 200.086 346.751Z" fill="#D1D1D1"/>
<path d="M254.505 162.217L253.721 165.273C253.721 165.273 246.88 159.729 246.935 159.62C246.989 159.512 248.179 157.538 248.692 157.7C249.206 157.863 253.478 159.512 253.478 159.62C253.478 159.729 254.505 162.217 254.505 162.217Z" fill="white"/>
<path d="M249.719 160.116C251.801 162.144 253.841 162.565 254.761 162.646C255.053 161.592 255.255 160.831 255.255 160.831C255.255 160.831 257.557 160.118 258.296 159.298C258.296 159.298 255.968 156.114 255.934 154.621C255.901 153.127 258.219 144.178 251.777 139.107C245.335 134.039 241.507 143.132 241.507 143.132L238.775 152.546L235.023 158.239C235.023 158.239 235.919 163.387 241.035 167.007C246.152 170.628 251.794 169.245 252.752 168.802C252.988 168.693 253.674 166.468 254.269 164.397C250.935 163.248 249.719 160.116 249.719 160.116Z" fill="#FFC0BB"/>
<path d="M250.918 154.34C251.191 154.809 251.813 154.98 252.307 154.718C252.799 154.458 252.978 153.865 252.705 153.395C252.432 152.925 251.811 152.757 251.319 153.017C250.825 153.277 250.645 153.87 250.918 154.34Z" fill="#333333"/>
<path d="M249.455 152.54C249.812 152.239 250.162 151.973 250.527 151.75C250.89 151.528 251.268 151.354 251.661 151.241C252.052 151.135 252.458 151.056 252.879 151.065L253.038 151.06C253.092 151.058 253.145 151.067 253.199 151.069L253.524 151.086C253.743 151.099 253.96 151.144 254.2 151.15C254.018 151.017 253.826 150.893 253.616 150.792C253.401 150.717 253.186 150.609 252.946 150.583C252.48 150.476 251.97 150.515 251.494 150.652C251.017 150.788 250.576 151.047 250.224 151.374C249.878 151.707 249.593 152.1 249.455 152.54Z" fill="#333333"/>
<path d="M242.554 147.538C242.554 147.538 240.292 149.456 239.727 158.263C239.289 165.095 233.571 166.204 233.685 166.167C233.799 166.13 235.293 151.161 235.581 150.656C235.869 150.15 237.792 144.455 238.094 144.311C238.393 144.167 242.287 146.708 242.504 146.771C242.719 146.835 242.554 147.538 242.554 147.538Z" fill="#D12A56"/>
<path d="M260.674 141.281C260.674 141.281 258.367 126.159 238.971 126.979C219.574 127.798 220.21 150.294 220.21 150.294C220.21 150.294 219.429 166.595 231.038 166.592C231.038 166.592 238.898 167.097 238.898 157.29C238.898 147.804 241.783 147.804 241.783 147.804L260.674 141.281Z" class="svg-tint-color"/>
<path d="M220.199 150.908C220.199 150.545 220.208 150.323 220.21 150.284C220.21 150.291 220.21 150.295 220.21 150.295C220.21 150.295 220.199 150.517 220.199 150.908ZM220.208 149.999C220.21 148.461 220.438 140.859 224.446 134.798C224.446 134.802 224.446 134.808 224.448 134.811C220.451 140.851 220.212 148.422 220.208 149.999Z" fill="#CAA3BE"/>
<path d="M231.231 166.579C231.107 166.579 231.038 166.575 231.038 166.575C231.036 166.575 231.036 166.575 231.034 166.575C220.805 166.575 220.199 153.908 220.199 150.908C220.199 150.517 220.21 150.295 220.21 150.295C220.21 150.295 220.21 150.291 220.21 150.283C220.21 150.28 220.21 150.278 220.21 150.278C220.21 150.278 220.206 150.18 220.208 149.999C220.212 148.422 220.451 140.851 224.448 134.811C224.807 144.528 228.246 153.887 238.893 157.654C238.711 166.176 232.419 166.579 231.231 166.579Z" fill="#FF3D5E"/>
<path d="M232.95 160.462C232.95 161.676 231.964 162.662 230.75 162.662C229.535 162.662 228.551 161.676 228.551 160.462C228.551 159.248 229.535 158.264 230.75 158.264C231.964 158.264 232.95 159.248 232.95 160.462Z" fill="#D12A56"/>
<path d="M241.783 147.804C242.371 147.602 257.164 146.461 264.111 145.933C265.297 145.843 265.715 144.313 264.738 143.632L260.674 140.799L241.783 147.804Z" fill="#1A1A1A"/>
<path d="M241.783 147.804C242.442 147.578 256.889 142.793 261.046 141.418C261.643 141.22 261.944 140.554 261.697 139.974L261.138 138.66C260.889 138.076 260.191 137.831 259.634 138.134L241.783 147.804Z" fill="#283F56"/>
<path d="M270.71 224.526C270.71 224.526 275.611 221.544 277.74 221.544C279.871 221.544 284.345 222.822 284.345 224.953C284.345 227.084 283.067 228.362 283.067 228.362L278.739 232.095C278.739 232.095 276.675 233.687 275.824 232.836C274.971 231.982 272.415 233.049 268.196 230.716C264.055 228.425 267.939 227.084 268.579 226.444C269.219 225.804 270.71 224.526 270.71 224.526Z" fill="#FFC0BB"/>
<path d="M284.284 227.675C284.284 230.179 282.253 232.209 279.75 232.209C277.246 232.209 275.216 230.179 275.216 227.675C275.216 225.172 277.246 223.142 279.75 223.142C282.253 223.142 284.284 225.172 284.284 227.675Z" fill="#1A1A1A"/>
<path d="M488.376 352.587H14.1836C13.0986 352.587 12.219 351.708 12.219 350.622V349.109C12.219 348.025 13.0986 347.144 14.1836 347.144H488.376C489.461 347.144 490.341 348.025 490.341 349.109V350.622C490.341 351.708 489.461 352.587 488.376 352.587Z" class="svg-primary-color"/>
<path d="M396.901 317.819C391.746 317.914 386.664 316.501 382.345 313.685C378.874 311.421 375.623 308.087 375.02 303.385C373.647 292.634 379.84 292.989 381.357 288.605C382.877 284.221 378.371 282.257 380.317 274.271C381.361 269.981 384.667 268.123 389.822 261.23C394.977 254.335 401.223 250.802 405.781 253.373C410.337 255.944 410.153 261.473 413.544 263.314C416.932 265.155 422.14 271.582 420.153 283.802C418.165 296.022 431.604 291.466 426.346 305.604C422.49 315.97 405.625 317.658 396.901 317.819Z" class="svg-tint-color"/>
<path d="M403.036 308.577C402.555 315.367 401.855 342.408 402.873 344.758C404.392 348.263 396.423 343.896 396.423 343.896C396.423 343.896 398.541 327.752 399.769 319.866C400.313 316.357 401.316 305.797 401.326 304.878C401.283 304.794 401.239 304.712 401.196 304.627C399.419 301.271 395.705 297.785 390.247 295.777C394.44 296.836 398.375 298.954 401.258 302.221C401.176 301.041 401.015 300.103 400.764 299.497C399.963 297.56 398.56 295.257 394.64 292.366C393.843 291.781 393.009 291.242 392.129 290.778C391.689 290.546 391.237 290.336 390.774 290.145C390.312 289.958 389.837 289.797 389.351 289.662C389.85 289.73 390.348 289.825 390.838 289.949C391.328 290.078 391.817 290.228 392.294 290.402C393.252 290.751 394.182 291.184 395.08 291.672C395.651 291.983 396.21 292.314 396.762 292.669C394.412 288.037 392.099 281.256 393.052 272.241C393.052 272.241 393.319 278.301 394.812 283.834C395.057 282.936 395.398 282.077 395.791 281.252C396.678 279.478 397.175 278.829 397.959 277.751C398.242 277.394 398.532 277.044 398.816 276.692C398.575 277.078 398.332 277.457 398.096 277.843C397.464 278.98 397.052 279.673 396.399 281.501C396.116 282.343 395.894 283.202 395.768 284.066C395.581 285.516 395.682 286.573 395.682 286.573C395.98 287.363 396.309 288.115 396.674 288.806C399.007 293.212 401.831 296.383 403.032 298.966C403.483 298.127 403.941 297.295 404.407 296.466C405.405 294.699 406.428 292.95 407.495 291.227C407.667 290.946 407.843 290.667 408.017 290.39C408.436 289.152 408.692 287.687 408.827 286.439C408.995 284.854 408.999 283.984 408.973 282.67C409.132 283.956 409.223 284.833 409.222 286.461C409.22 287.097 409.188 287.735 409.137 288.371C409.128 288.478 409.119 288.583 409.107 288.688L409.126 288.661C409.682 287.814 410.247 286.972 410.834 286.147C411.422 285.322 412.024 284.506 412.657 283.714C413.289 282.923 413.952 282.156 414.668 281.443C414.002 282.202 413.396 283.009 412.822 283.838C412.247 284.667 411.704 285.514 411.179 286.373C410.651 287.232 410.146 288.104 409.652 288.981C409.158 289.857 408.679 290.744 408.207 291.635C408.148 291.749 408.088 291.863 408.028 291.977C408.228 291.925 408.529 291.842 409.171 291.7C411.611 291.165 413.613 291.017 415.4 290.909C413.74 291.169 411.742 291.496 409.324 292.271C408.735 292.462 408.101 292.682 407.534 292.928C406.834 294.286 406.159 295.657 405.5 297.035C405.068 297.942 404.643 298.855 404.231 299.77C404.065 300.141 403.822 300.485 403.739 300.88C403.436 302.317 403.036 308.577 403.036 308.577Z" class="svg-primary-color"/>
<path d="M18.1638 347.219C18.1638 347.219 22.8208 340.18 31.303 341.69C31.303 341.69 35.9732 331.771 48.9348 331.657C62.0721 331.539 64.5668 340.691 64.5668 340.691C64.5668 340.691 68.309 337.533 76.7914 340.775C85.2736 344.02 88.2673 349.867 88.2673 349.867L18.1638 347.219Z" class="svg-primary-color"/>
<path d="M452.165 335.536C452.165 335.536 451.624 326.555 443.807 327.387C443.807 327.387 433.162 310.422 422.02 334.372C422.02 334.372 411.957 328.935 408.256 340.76C408.256 340.76 402.061 329.217 393.246 333.042C384.432 336.866 381.425 347.371 381.425 347.371L446.484 348.757L452.165 335.536Z" class="svg-tint-color"/>
<path d="M487.216 347.219C487.216 347.219 482.559 340.18 474.077 341.69C474.077 341.69 469.407 331.771 456.446 331.657C443.309 331.539 440.813 340.691 440.813 340.691C440.813 340.691 437.071 337.533 428.589 340.775C420.108 344.02 417.114 349.867 417.114 349.867L487.216 347.219Z" class="svg-primary-color"/>
<path d="M436.726 294.8C431.843 292.303 427.738 288.141 426.269 283.061C424.854 278.165 425.951 272.963 427.141 268.01C427.661 265.843 428.189 263.521 427.343 261.448C426.817 260.157 425.811 259.109 424.897 258.032C417.005 248.734 415.205 235.966 416.204 224.064C416.483 220.76 416.977 217.388 418.62 214.463C420.263 211.541 423.264 209.116 426.746 208.886C432.124 208.532 437.247 213.288 442.368 211.69C446.039 210.543 447.889 206.601 451.216 204.736C454.012 203.17 457.466 203.261 460.708 203.402C461.73 203.445 462.774 203.493 463.719 203.864C465.863 204.704 466.956 206.949 467.637 209.052C468.737 212.454 469.282 216.001 470.385 219.401C471.491 222.803 473.256 226.158 476.236 228.317C478.628 230.051 481.595 230.873 484.291 232.143C490.958 235.285 495.81 241.11 499.41 247.294C500.488 249.144 501.479 251.06 502.029 253.109C503.76 259.555 500.418 266.914 494.296 270.145C492.019 271.348 489.457 272.009 487.19 273.227C481.99 276.017 478.963 281.302 475.986 286.218C473.009 291.133 469.424 296.254 463.818 298.21C456.16 300.883 443.689 298.363 436.726 294.8Z" class="svg-tint-color"/>
<path d="M490.756 262.193C489.542 262.017 488.32 261.927 487.098 261.873C485.876 261.823 484.653 261.83 483.429 261.868C483.094 261.879 482.759 261.894 482.426 261.911C483.983 261.168 485.517 260.333 486.973 259.317C488.546 258.215 490.049 256.89 491.22 255.192C489.953 256.782 488.404 257.951 486.797 258.9C485.184 259.847 483.492 260.577 481.782 261.207C480.211 261.782 478.622 262.27 477.02 262.717C477.26 262.294 477.479 261.856 477.683 261.409C478.132 260.414 478.497 259.368 478.764 258.288C479.037 257.21 479.208 256.103 479.292 254.991C479.369 253.878 479.355 252.763 479.256 251.666C479.264 252.77 479.185 253.871 479.021 254.945C478.848 256.017 478.596 257.063 478.25 258.054C477.909 259.05 477.482 259.995 476.985 260.868C476.736 261.306 476.47 261.727 476.188 262.126C475.965 262.438 475.546 263.016 475.262 263.196C473.948 263.542 472.627 263.873 471.306 264.21C467.104 265.299 461.174 266.686 454.666 272.25C454.393 268.996 454.096 265.269 453.892 262.661C453.718 260.44 453.847 258.2 454.279 256.034L454.285 256C454.736 253.766 455.207 251.535 455.696 249.309C456.44 245.932 457.219 242.565 458.044 239.214C459.7 232.173 459.312 231.255 459.458 229.653C459.498 229.219 459.503 228.781 459.464 228.347C459.462 228.323 459.46 228.302 459.46 228.282C459.342 226.822 459.187 225.374 458.981 223.937C458.448 220.286 457.997 218.355 457.271 215.489C457.754 218.443 458.034 220.404 458.255 224.047C458.338 225.479 458.369 226.914 458.364 228.343C458.364 229.058 458.343 229.771 458.317 230.482C458.3 230.836 458.285 231.191 458.263 231.543C458.251 231.719 458.24 231.895 458.225 232.069C458.218 232.173 457.632 234.69 457.409 235.392C456.034 239.718 454.747 244.083 453.514 248.476C452.938 250.534 452.378 252.6 451.834 254.677C451.834 254.677 451.557 255.639 451.269 257.467C451.139 257.064 450.065 254.095 449.545 252.873C446.92 246.701 444.276 241.428 439.907 235.094C438.231 232.664 438.01 232.43 435.789 229.546C438.545 233.599 437.737 232.362 439.614 235.386C443.603 241.952 445.979 247.419 448.236 253.631C449.055 256.093 449.487 257.338 450.318 260.582C450.417 260.973 450.515 261.364 450.601 261.759C450.651 261.98 450.702 262.201 450.75 262.421C450.569 265.477 450.685 268.545 451.044 271.577C451.192 272.813 452.634 295.014 452.801 303.153C453.175 321.443 449.948 342.137 449.948 342.137C449.948 342.137 469.293 348.162 465.362 340.878C462.727 335.994 456.395 291.863 455.02 276.352C455.123 276.238 455.226 276.122 455.331 276.007C461.212 269.642 467.326 267.567 471.667 266.042C473.667 265.346 475.683 264.661 477.685 263.903L477.683 263.905C478.861 263.668 482.282 263.037 483.483 262.884C484.684 262.732 485.893 262.614 487.102 262.551C488.31 262.493 489.523 262.468 490.734 262.532C491.942 262.601 493.153 262.738 494.348 263.018C493.173 262.627 491.967 262.377 490.756 262.193Z" class="svg-primary-color"/>
</svg>
